<?xml version="1.0" encoding="UTF-8"?>
<svg xmlns="http://www.w3.org/2000/svg" version="1.1" viewBox="0 0 464 500">
  <!-- Generator: Adobe Illustrator 29.8.1, SVG Export Plug-In . SVG Version: 2.1.1 Build 2)  -->
  <defs>
    <style>
      .st0 {
        fill: none;
        stroke: #a8d080;
        stroke-linecap: round;
        stroke-miterlimit: 10;
        stroke-width: 16px;
      }

      .st1 {
        fill: #a8d080;
      }
    </style>
  </defs>
  <g id="Layer_2">
    <polygon class="st1" points="280.6 451.56 329.21 374.64 280.45 296.1 183.55 296.1 134.79 374.64 183.4 451.56 280.6 451.56"/>
  </g>
  <g id="Layer_3">
    <path class="st0" d="M197.22,297.93s-7.49-13.4-10.22-34.78c-2.43-19.04,1.71-24.93-.97-48.78-1.95-17.32-9.73-42.21-9.73-42.21"/>
    <path class="st0" d="M212.43,299.87s-4.01-16.48-5.47-49.11,1.09-59.75,0-81.39-7.66-50.14-7.66-50.14"/>
    <path class="st0" d="M232.1,301.33s-3.28-34.91-4.01-64.53c-.73-29.62,4.01-49.69,4.01-89.47s-2.05-98.89-2.05-98.89"/>
    <path class="st0" d="M267.47,312.31s5.53-13.4,7.54-34.78c1.8-19.04-1.26-24.93.72-48.78,1.44-17.32,7.19-42.21,7.19-42.21"/>
    <path class="st0" d="M250.64,307.96s2.45-19.06,3.35-56.8c.89-37.73-.67-69.11,0-94.13.67-25.02,4.68-57.99,4.68-57.99"/>
  </g>
</svg>