<?xml version="1.0" encoding="UTF-8"?>
<svg xmlns="http://www.w3.org/2000/svg" version="1.1" viewBox="0 0 464 500">
  <!-- Generator: Adobe Illustrator 29.8.1, SVG Export Plug-In . SVG Version: 2.1.1 Build 2)  -->
  <defs>
    <style>
      .st0 {
        stroke-width: 6px;
      }

      .st0, .st1 {
        stroke: #8ea04b;
        stroke-miterlimit: 10;
      }

      .st0, .st2 {
        fill: #8ea04b;
      }

      .st1 {
        fill: none;
        stroke-width: 7px;
      }
    </style>
  </defs>
  <g id="Layer_2">
    <polygon class="st2" points="294.53 309.47 319.23 383.69 275.51 461.92 188.12 461.92 144.4 383.69 169.09 309.47 294.53 309.47"/>
  </g>
  <g id="Layer_3">
    <line class="st1" x1="231.82" y1="317.42" x2="231.82" y2="108.2"/>
    <polyline class="st1" points="290.33 178.21 231.82 232.01 174.81 176.56"/>
  </g>
  <g id="Layer_4">
    <path class="st0" d="M230.35,106.45s-18.4-14.15-18.4-33.04,18.4-35.33,18.4-35.33c0,0,21.83,11.53,22.81,36.55.98,25.02-22.81,31.81-22.81,31.81Z"/>
    <path class="st0" d="M290.34,178.78s-4.51-18.03,7.08-33.7c11.59-15.67,37.57-12.02,37.57-12.02,0,0,4.08,21.9-9.66,35.63-13.74,13.74-34.99,10.09-34.99,10.09Z"/>
    <path class="st0" d="M256.31,211.2s16.74-14.81,38-1.07c21.25,13.74,18.03,30.91,18.03,30.91,0,0-20.18,5.8-36.71-1.93s-19.32-27.91-19.32-27.91Z"/>
    <path class="st0" d="M235.95,287.81s1.16-16.55,24.19-26.8c23.03-10.25,37.18,7.13,37.18,7.13,0,0-4.43,16.37-21.72,24.11-17.29,7.74-39.64-4.44-39.64-4.44Z"/>
    <path class="st0" d="M227.69,279.94s-16.31,5.15-36.28-3.86c-19.96-9.02-17.39-32.84-17.39-32.84,0,0,13.74-10.52,33.7,0s19.96,36.71,19.96,36.71Z"/>
    <path class="st0" d="M189.15,193.84s-13.74-7.21-28.16,1.72c-14.42,8.93-13.39,23.87-13.39,23.87,0,0,10.65,8.76,27.3,1.2,16.66-7.56,14.25-26.79,14.25-26.79Z"/>
    <path class="st0" d="M176.59,178.22s-22.54,2.14-37.02-8.07c-14.48-10.2-10.68-40.75-10.68-40.75,0,0,23.26-4.58,37.73,10.85,14.48,15.42,9.97,37.97,9.97,37.97Z"/>
    <path class="st0" d="M230.38,146.99s-18.68,4.37-36.49-5.08c-17.82-9.45-15.03-33.7-15.03-33.7,0,0,17.17-5.8,32.84,3.65s18.68,35.13,18.68,35.13Z"/>
    <path class="st0" d="M232.64,170.84s-1.97-15.37,14.79-30.33c16.76-14.96,30.29-3.84,30.29-3.84,0,0,3.65,18.82-12.32,28.52-15.97,9.7-32.76,5.65-32.76,5.65Z"/>
  </g>
</svg>