<?xml version="1.0" encoding="UTF-8"?>
<svg id="Layer_1" xmlns="http://www.w3.org/2000/svg" version="1.1" viewBox="0 0 464 500">
  <!-- Generator: Adobe Illustrator 29.8.1, SVG Export Plug-In . SVG Version: 2.1.1 Build 2)  -->
  <defs>
    <style>
      .st0 {
        fill: #c37b31;
      }
    </style>
  </defs>
  <g id="Layer_2">
    <g>
      <path class="st0" d="M272.07,437.82s34.71-20.27,43.33-63.59c4.64-23.34,1.77-61.06,1.77-61.06h-169.25s-2.87,37.72,1.77,61.06c8.61,43.33,43.33,63.59,43.33,63.59h79.05Z"/>
      <path class="st0" d="M272.21,438.32h-79.32l-.12-.07c-.35-.2-35.01-20.87-43.57-63.92-4.6-23.14-1.81-60.82-1.78-61.2l.04-.46h170.18l.04.46c.03.38,2.82,38.06-1.78,61.2-8.56,43.04-43.22,63.72-43.57,63.92l-.12.07ZM193.16,437.32h78.77c2.19-1.33,34.75-21.83,42.98-63.19,4.3-21.62,2.1-56.07,1.79-60.46h-168.32c-.3,4.39-2.5,38.84,1.79,60.46,8.22,41.37,40.79,61.85,42.98,63.19Z"/>
    </g>
  </g>
  <g id="Layer_3">
    <path class="st0" d="M238.04,313.22l-11-.03c0-.12,0-.35,0-.69-.06-7.9-1.81-90.54-47.37-133.95-47.41-45.18-85.15-44.61-85.53-44.59l-.4-10.99c1.71-.06,42.43-1.05,93.52,47.62,24.38,23.23,37.06,55.85,43.66,84.06,2.72-20.47,7.35-42.16,15.23-57.61,25.85-50.73,67.11-62.21,68.86-62.68l2.83,10.63c-.37.1-38.37,10.89-61.88,57.04-16.95,33.26-17.85,101.37-17.9,110.17,0,.51,0,.85,0,1.02Z"/>
  </g>
  <g id="Layer_4">
    <g>
      <path class="st0" d="M313.98,141.19s1.3-19.52,19.47-28.16c18.17-8.63,42.24,2.5,42.24,2.5,0,0-.23,17.03-18.4,28.39-18.17,11.36-43.33-2.74-43.33-2.74h.01Z"/>
      <path class="st0" d="M309.28,138.07c2.12-7.39,8.78-23.01,22.12-29.36,19.97-9.48,45.24,1.98,46.3,2.48l2.82,1.3-.04,3.1c-.01.8-.49,19.79-20.64,32.38-6.1,3.81-12.78,5.16-19.16,5.16-8.77,0-22.11-6.1-27.56-8.28M319.25,138.44c6.67,3,23.32,9.05,35.52,1.42,11.31-7.07,14.7-16.44,15.72-21.27-6.73-2.45-22.71-7.08-34.98-1.24-11.45,5.45-15.11,15.88-16.26,21.09Z"/>
    </g>
    <g>
      <path class="st0" d="M191.26,178.02s-4.71-20.38,6.8-39.83c11.51-19.45,32.11-19.75,32.11-19.75,0,0,12.72,20.89,0,42.1-12.72,21.21-38.9,17.48-38.9,17.48h-.01Z"/>
      <path class="st0" d="M196.01,183.06c-2.48,0-4.27-.17-5.04-.26h-3.5l-.87-3.71c-.21-.91-5-22.49,7.35-43.34,12.73-21.51,35.2-22.08,36.15-22.09l2.73-.04,1.42,2.33c.58.95,14.06,23.63.02,47.05-10.61,17.69-29.11,20.06-38.26,20.06ZM195.41,173.51c6.88.12,22.21-1.34,30.66-15.43,8.71-14.52,3.94-28.83,1.33-34.57-5.47.85-17.57,4.17-25.23,17.11-7.69,13-7.42,26.66-6.76,32.88Z"/>
    </g>
    <g>
      <path class="st0" d="M280.84,153.6c-.37.44-16.97-7.28-19.09-31.2s21.8-38.47,21.8-38.47c0,0,11.51,5.75,12.72,24.23,1.21,18.48-15.43,45.44-15.43,45.44h0Z"/>
      <path class="st0" d="M280.8,158.4c-.53,0-1.1-.08-1.73-.28-4.12-1.29-19.93-11.07-22.08-35.3-2.35-26.58,23-42.32,24.08-42.97l2.26-1.37,2.36,1.18c.57.28,13.98,7.22,15.35,28.2,1.29,19.78-15.42,47.1-16.13,48.26l-.4.56c-.39.47-1.64,1.73-3.71,1.73ZM283.54,89.79c-5.58,4.25-18.47,15.93-17.03,32.2,1.29,14.59,8.4,22.03,12.52,25.16,4.34-7.88,13.3-25.87,12.46-38.66-.7-10.66-5.19-16.23-7.96-18.69Z"/>
    </g>
    <g>
      <path class="st0" d="M247.7,215.69s7.88-15.74,33.02-23.32c25.14-7.57,40.58,1.52,40.58,1.52,0,0-.3,24.84-25.14,33.31-24.84,8.48-48.46-11.51-48.46-11.51h0Z"/>
      <path class="st0" d="M283.29,234.1c-20.95,0-37.82-14.03-38.68-14.75l-2.87-2.43,1.68-3.36c.36-.72,9.11-17.68,35.91-25.76,26.83-8.08,43.68,1.56,44.39,1.97l2.39,1.41-.03,2.77c-.12,9.76-6.2,30.22-28.37,37.78-4.92,1.68-9.77,2.37-14.41,2.37ZM254.21,214.54c6.98,4.7,23.64,13.87,40.41,8.14,16.65-5.68,20.64-19.68,21.6-25.87-5.04-1.93-17.02-5.01-34.12.14-16,4.82-24.31,13.03-27.89,17.59Z"/>
    </g>
    <g>
      <path class="st0" d="M212.26,228.56s-12.03-16.5-31.1-18.91c-19.08-2.43-36.95,10.27-36.95,10.27,0,0,9.02,24.55,33.74,25.77,24.71,1.21,34.31-17.13,34.31-17.13h0Z"/>
      <path class="st0" d="M180.32,250.52c-.85,0-1.71-.02-2.6-.06-27.57-1.36-37.59-27.77-38-28.9l-1.26-3.43,2.98-2.12c.79-.56,19.63-13.74,40.32-11.11,20.88,2.64,33.82,20.1,34.36,20.84l1.75,2.4-1.38,2.63c-.44.83-10.64,19.75-36.18,19.75ZM150.32,221.74c3.28,6.17,11.76,18.37,27.87,19.16,16.01.78,24.69-7.61,28.11-12.02-3.96-4.33-13.27-12.93-25.74-14.51-12.46-1.58-24.57,4.13-30.24,7.36Z"/>
    </g>
    <g>
      <path class="st0" d="M261.81,312.08s-11.2-11.88,0-33.09c11.2-21.21,41.49-18.17,41.49-18.17,0,0,5.92,18.12-7.57,36.95-13.48,18.83-33.92,14.31-33.92,14.31Z"/>
      <path class="st0" d="M267.42,317.35c-3.8,0-6.33-.53-6.64-.6l-1.44-.32-1.01-1.07c-.55-.59-13.4-14.65-.75-38.6,12.56-23.78,44.82-20.83,46.2-20.69l3.1.31.97,2.96c.27.83,6.5,20.66-8.23,41.22-10.31,14.39-24.12,16.79-32.21,16.79ZM264.46,307.65c4.62.49,17.91.57,27.39-12.66,8.77-12.25,8.41-24.06,7.58-29.52-7.6,0-25.89,1.56-33.39,15.76-7.57,14.32-3.56,23.32-1.58,26.42Z"/>
    </g>
    <g>
      <path class="st0" d="M134.98,135.68s-17.87-14.5-17.57-34.78c.3-20.29,18.79-33.92,18.79-33.92,0,0,18.16,5.71,19.68,34.35s-20.89,34.35-20.89,34.35h0Z"/>
      <path class="st0" d="M133.84,140.91l-1.87-1.51c-.8-.65-19.67-16.22-19.34-38.57.33-22.4,19.9-37.09,20.73-37.7l1.96-1.44,2.32.73c.87.27,21.34,7.07,23.02,38.66,1.36,25.75-15.42,36.93-24.49,39.24l-2.33.59ZM136.94,72.59c-4.47,4.03-14.55,14.63-14.75,28.38-.2,13.89,9.61,25.05,13.88,29.23,4.96-2.23,16.05-9.38,15.03-28.62-1.01-19.09-9.91-26.51-14.16-28.99Z"/>
    </g>
    <g>
      <path class="st0" d="M154.11,155.37s-19.66-7.05-37.24,2.03c-17.57,9.08-19.99,31.2-19.99,31.2,0,0,17.26,11.2,39.97,2.12,22.71-9.08,17.25-35.35,17.25-35.35Z"/>
      <path class="st0" d="M118.82,199.06c-14.36,0-23.98-6.09-24.54-6.46l-2.47-1.6.32-2.93c.11-1.01,2.92-24.78,22.54-34.93,19.2-9.93,40.16-2.6,41.05-2.29l2.52.9.55,2.62c2.17,10.44.75,32.4-20.15,40.76-7.2,2.88-13.91,3.91-19.81,3.91ZM102.22,186.01c5.27,2.39,17.61,6.36,32.86.26,15-6,15.31-20.94,14.73-27.17-5.58-1.38-18.87-3.6-30.74,2.54-11.37,5.88-15.5,18.5-16.85,24.37Z"/>
    </g>
    <g>
      <path class="st0" d="M91.81,125.35s-17.57-13.33-36.04-6.2-28.77,27.31-28.77,27.31c0,0,9.38,15.55,36.65,10.7,27.25-4.84,28.16-31.8,28.16-31.8h0Z"/>
      <path class="st0" d="M53.51,162.88c-21.9,0-30.21-13.3-30.6-13.95l-1.37-2.28,1.21-2.37c.45-.89,11.37-21.91,31.31-29.6,20.72-7.99,39.85,6.25,40.65,6.86l1.89,1.44v2.55c-.36,10.66-7.53,31.98-32.11,36.34-3.99.71-7.64,1.02-10.98,1.02ZM32.8,146c3.41,3.4,12.32,9.6,30.02,6.45,18.64-3.31,22.95-18.55,23.94-24.71-4.84-2.9-17.02-8.85-29.25-4.14-12.71,4.9-21.36,17.02-24.7,22.39Z"/>
    </g>
    <g>
      <path class="st0" d="M209.2,326.74s11.2-11.88,0-33.09c-11.2-21.21-41.49-18.17-41.49-18.17,0,0-5.92,18.12,7.57,36.95,13.5,18.83,33.92,14.31,33.92,14.31Z"/>
      <path class="st0" d="M203.6,332.01c-8.08,0-21.89-2.4-32.21-16.79-14.72-20.56-8.5-40.38-8.23-41.22l.97-2.96,3.1-.31c1.37-.13,33.64-3.08,46.2,20.69,12.65,23.95-.2,38.01-.75,38.6l-1.01,1.07-1.44.32c-.31.07-2.84.6-6.64.6ZM171.57,280.13c-.84,5.46-1.21,17.23,7.59,29.52,9.46,13.2,22.82,13.13,27.39,12.65,1.97-3.1,5.98-12.1-1.59-26.42-7.5-14.2-25.8-15.76-33.4-15.76Z"/>
    </g>
  </g>
</svg>