<?xml version="1.0" encoding="UTF-8"?>
<svg id="Layer_1" xmlns="http://www.w3.org/2000/svg" version="1.1" viewBox="0 0 464 500">
  <!-- Generator: Adobe Illustrator 29.8.1, SVG Export Plug-In . SVG Version: 2.1.1 Build 2)  -->
  <defs>
    <style>
      .st0 {
        fill: #8ba275;
      }
    </style>
  </defs>
  <path class="st0" d="M310.9,145.2c-41.9-5.1-83.7-19.9-83.7-19.9,0,0,33.2,0,69.4-10.5-13.58-22.47-30.5-42.74-50.2-60.1-58.9,52.2-85.2,117.4-75,192.5,27,11.8,47.8,24.1,47.8,24.1,0,0-18.8-3.7-44.2-4.1,7.4,34,22,69.8,44.2,107.3l-1.2,5.7c-7.5,34.8-9.6,54-9.7,54.8-.3,3,1.8,5.7,4.8,6h.6c2.7,0,5.1-2.1,5.4-4.8,0-.2,2.1-19.5,9.5-53.7l1.7-8c79.8-80,106.2-157.9,80.6-229.2v-.1Z"/>
</svg>