<?xml version="1.0" encoding="UTF-8"?>
<svg id="Layer_1" xmlns="http://www.w3.org/2000/svg" version="1.1" viewBox="0 0 464 500">
  <!-- Generator: Adobe Illustrator 29.8.1, SVG Export Plug-In . SVG Version: 2.1.1 Build 2)  -->
  <defs>
    <style>
      .st0 {
        fill: #cadb2b;
      }
    </style>
  </defs>
  <path class="st0" d="M321.9,227.8c-13.2-5.2-29.3-11.5-51.8-22,17.2-3.8,31.9-6.3,44.8-7.8-23.4-78.1-82.1-148-82.1-148,0,0-20.4,25.4-41.3,62.7,13.8,5.56,27.2,12.07,40.1,19.5,0,0-23.2-4.6-49.5-1.9-19.8,38.9-37.4,87.1-35.3,132.6,23.4-6.4,45.3-6.7,59.5.7-16,8.7-35.5,17.3-54.1,32.5,9.5,32.2,32.1,61.3,74.7,82.8l-.2,1.7c-2.1,18.04-5.27,35.94-9.5,53.6-.8,2.9,1,5.9,3.9,6.6l1.4.2c2.4,0,4.6-1.6,5.2-4,.2-.8,5.2-19.6,9.8-54.9l.4-3.3c77.9-34.4,93.6-92.8,84-150.9v-.1Z"/>
</svg>