<?xml version="1.0" encoding="UTF-8"?>
<svg xmlns="http://www.w3.org/2000/svg" version="1.1" viewBox="0 0 464 500">
  <!-- Generator: Adobe Illustrator 29.8.1, SVG Export Plug-In . SVG Version: 2.1.1 Build 2)  -->
  <defs>
    <style>
      .st0 {
        fill: none;
        stroke: #978a3a;
        stroke-linecap: round;
        stroke-miterlimit: 10;
        stroke-width: 10px;
      }

      .st1 {
        fill: #978a3a;
      }
    </style>
  </defs>
  <g id="Layer_2">
    <path class="st1" d="M279.85,426.9l32.85-101.83c5.81-18.02-4.7-37.71-20.13-37.71h-121.14c-15.43,0-25.94,19.7-20.13,37.71l32.85,101.83h95.7Z"/>
  </g>
  <g id="Layer_3">
    <path class="st0" d="M268.25,287.65s9.22-75.29,48.13-75.29c60.52,0,99.08,119.06,99.08,119.06,0,0,5.17.84,7.92,3.06s7.07,8.44,7.07,8.44"/>
    <path class="st0" d="M253.09,287.65s-.25-112.45,58.3-130.44c74.03-22.75,114.56,55.15,114.56,55.15"/>
    <path class="st0" d="M238.96,286.46s.98-90.56,16.21-129.76c29.97-77.12,73.32-83.6,73.32-83.6"/>
    <path class="st0" d="M272.88,265.06s3.35-.98,9.79-2.24c6.44-1.27,10.98-1.06,10.98-1.06"/>
    <path class="st0" d="M276.39,253.65s-1.85-5.09-2.27-9.73,0-12.24,0-12.24"/>
    <path class="st0" d="M280.79,242.66s4.63-1.17,11.28-1.17,9.71,1.17,9.71,1.17"/>
    <path class="st0" d="M289.24,228.05s-1.82-9.68-2.03-13.9,1.02-11.08,1.02-11.08"/>
    <path class="st0" d="M297.53,219.27s5.19,2.06,8.25,5.33,4.12,4.64,4.12,4.64"/>
    <path class="st0" d="M314.32,212.43s1.81-9.05,5.29-14.11c3.48-5.07,5.28-6.54,5.28-6.54"/>
    <path class="st0" d="M342.4,219.78s5.4-4.04,11.63-5.73,14.14-1.69,14.14-1.69"/>
    <path class="st0" d="M327.49,213.7s.99,6.05,1.52,8.79,2.01,6.76,2.01,6.76"/>
    <path class="st0" d="M354.87,228.72s-2.32,4.75-3.17,8.66-1.27,9.08-1.27,9.08"/>
    <path class="st0" d="M364.74,238.38s8.81-1.32,14.72-.79,13.09,3.27,13.09,3.27"/>
    <path class="st0" d="M375.89,252.17s-3.5,7.37-4.35,10.22-1.06,6.33-1.06,6.33"/>
    <path class="st0" d="M387.06,269.25s6.54-.42,13.72,1.16c7.18,1.58,11.4,4.22,11.4,4.22"/>
    <path class="st0" d="M394.53,282.67s-3.46,5.79-5.15,8.85-3.38,9.39-3.38,9.39"/>
    <path class="st0" d="M402.99,300.04s8.56-.07,12.05.88c3.48.95,9.82,3.48,9.82,3.48"/>
    <path class="st0" d="M406.96,309.13s-2.9,6.04-4.48,9.63-2.11,5.17-2.11,5.17"/>
    <path class="st0" d="M413.35,327.73s-1.9,4.33-2.32,8.97c-.42,4.64,0,11.08,0,11.08"/>
    <path class="st0" d="M276.39,187.13s6.68-2.32,12.85-2.74,11.09,0,11.09,0"/>
    <path class="st0" d="M289.24,170.57s-.68-8.14,0-14.61c.68-6.47,3.21-13.65,3.21-13.65"/>
    <path class="st0" d="M305.92,159.24s3.67.32,7.78,4.04c4.36,3.94,4.93,7.29,4.93,7.29"/>
    <path class="st0" d="M312.55,156.86s1.43-6.96,3.26-10.9,3.79-8.02,3.79-8.02"/>
    <path class="st0" d="M331.02,153.35s4.78-6.39,9.29-9.21,9.04-4.22,9.04-4.22"/>
    <path class="st0" d="M348.21,153.69s4.06,4.95,5.47,9.45,1.61,10.13,1.61,10.13"/>
    <path class="st0" d="M373.19,161.02s3.84-2.52,10.04-2.81,8.3,0,8.3,0"/>
    <path class="st0" d="M383.47,166.65s.39,6.76,0,10.98-2.22,9.5-2.22,9.5"/>
    <path class="st0" d="M400.36,179.78s5.24-1.16,12.28-1.02,9.01,1.02,9.01,1.02"/>
    <path class="st0" d="M411.01,190.97s.33,5.52,0,9.32-2.02,10.27-2.02,10.27"/>
    <path class="st0" d="M249.97,174.05s4.48-2.05,8.99-2.33,9.85,0,9.85,0"/>
    <path class="st0" d="M254.39,158.76s-3.84-6.18-4.42-10.12-.87-10.7-.87-10.7"/>
    <path class="st0" d="M262,140.74s4.98.16,10.19-.83,7.88-3.52,7.88-3.52"/>
    <path class="st0" d="M269.64,126.06s-3.65-7.67-4.07-11.05,0-11.4,0-11.4"/>
    <path class="st0" d="M278.73,111.85s9.37-.05,12.88,0,9.43.9,9.43.9"/>
    <path class="st0" d="M289.24,98.8s-.86-11.8-.3-16.02,1.76-8.73,1.76-8.73"/>
    <path class="st0" d="M303.95,85.3s4.51,3.08,12.13,3.39,10.01,0,10.01,0"/>
    <path class="st0" d="M195.75,287.65s-9.22-75.29-48.13-75.29c-60.52,0-99.08,119.06-99.08,119.06,0,0-5.17.84-7.92,3.06s-7.07,8.44-7.07,8.44"/>
    <path class="st0" d="M210.91,287.65s.25-112.45-58.3-130.44c-74.03-22.75-114.56,55.15-114.56,55.15"/>
    <path class="st0" d="M225.04,286.46s-.98-90.56-16.21-129.76c-29.97-77.12-73.32-83.6-73.32-83.6"/>
    <path class="st0" d="M191.12,265.06s-3.35-.98-9.79-2.24c-6.44-1.27-10.98-1.06-10.98-1.06"/>
    <path class="st0" d="M187.61,253.65s1.85-5.09,2.27-9.73c.42-4.64,0-12.24,0-12.24"/>
    <path class="st0" d="M183.21,242.66s-4.63-1.17-11.28-1.17-9.71,1.17-9.71,1.17"/>
    <path class="st0" d="M174.76,228.05s1.82-9.68,2.03-13.9c.21-4.22-1.02-11.08-1.02-11.08"/>
    <path class="st0" d="M166.47,219.27s-5.19,2.06-8.25,5.33c-3.06,3.27-4.12,4.64-4.12,4.64"/>
    <path class="st0" d="M149.68,212.43s-1.81-9.05-5.29-14.11-5.28-6.54-5.28-6.54"/>
    <path class="st0" d="M121.6,219.78s-5.4-4.04-11.63-5.73c-6.23-1.69-14.14-1.69-14.14-1.69"/>
    <path class="st0" d="M136.51,213.7s-.99,6.05-1.52,8.79-2.01,6.76-2.01,6.76"/>
    <path class="st0" d="M109.13,228.72s2.32,4.75,3.17,8.66,1.27,9.08,1.27,9.08"/>
    <path class="st0" d="M99.26,238.38s-8.81-1.32-14.72-.79c-5.91.53-13.09,3.27-13.09,3.27"/>
    <path class="st0" d="M88.11,252.17s3.5,7.37,4.35,10.22,1.06,6.33,1.06,6.33"/>
    <path class="st0" d="M76.94,269.25s-6.54-.42-13.72,1.16c-7.18,1.58-11.4,4.22-11.4,4.22"/>
    <path class="st0" d="M69.47,282.67s3.46,5.79,5.15,8.85,3.38,9.39,3.38,9.39"/>
    <path class="st0" d="M61.01,300.04s-8.56-.07-12.05.88-9.82,3.48-9.82,3.48"/>
    <path class="st0" d="M57.04,309.13s2.9,6.04,4.48,9.63,2.11,5.17,2.11,5.17"/>
    <path class="st0" d="M50.65,327.73s1.9,4.33,2.32,8.97c.42,4.64,0,11.08,0,11.08"/>
    <path class="st0" d="M187.61,187.13s-6.68-2.32-12.85-2.74-11.09,0-11.09,0"/>
    <path class="st0" d="M174.76,170.57s.68-8.14,0-14.61c-.68-6.47-3.21-13.65-3.21-13.65"/>
    <path class="st0" d="M158.08,159.24s-3.67.32-7.78,4.04c-4.36,3.94-4.93,7.29-4.93,7.29"/>
    <path class="st0" d="M151.45,156.86s-1.43-6.96-3.26-10.9-3.79-8.02-3.79-8.02"/>
    <path class="st0" d="M132.98,153.35s-4.78-6.39-9.29-9.21c-4.5-2.81-9.04-4.22-9.04-4.22"/>
    <path class="st0" d="M115.79,153.69s-4.06,4.95-5.47,9.45c-1.41,4.5-1.61,10.13-1.61,10.13"/>
    <path class="st0" d="M90.81,161.02s-3.84-2.52-10.04-2.81-8.3,0-8.3,0"/>
    <path class="st0" d="M80.53,166.65s-.39,6.76,0,10.98,2.22,9.5,2.22,9.5"/>
    <path class="st0" d="M63.64,179.78s-5.24-1.16-12.28-1.02-9.01,1.02-9.01,1.02"/>
    <path class="st0" d="M52.99,190.97s-.33,5.52,0,9.32,2.02,10.27,2.02,10.27"/>
    <path class="st0" d="M214.03,174.05s-4.48-2.05-8.99-2.33-9.85,0-9.85,0"/>
    <path class="st0" d="M209.61,158.76s3.84-6.18,4.42-10.12.87-10.7.87-10.7"/>
    <path class="st0" d="M202,140.74s-4.98.16-10.19-.83-7.88-3.52-7.88-3.52"/>
    <path class="st0" d="M194.36,126.06s3.65-7.67,4.07-11.05,0-11.4,0-11.4"/>
    <path class="st0" d="M185.27,111.85s-9.37-.05-12.88,0-9.43.9-9.43.9"/>
    <path class="st0" d="M174.76,98.8s.86-11.8.3-16.02c-.56-4.22-1.76-8.73-1.76-8.73"/>
    <path class="st0" d="M160.05,85.3s-4.51,3.08-12.13,3.39-10.01,0-10.01,0"/>
  </g>
</svg>