<?xml version="1.0" encoding="UTF-8"?>
<svg id="Layer_1" xmlns="http://www.w3.org/2000/svg" version="1.1" viewBox="0 0 464 500">
  <!-- Generator: Adobe Illustrator 29.8.1, SVG Export Plug-In . SVG Version: 2.1.1 Build 2)  -->
  <defs>
    <style>
      .st0 {
        fill: #c8c12e;
      }
    </style>
  </defs>
  <path class="st0" d="M230.6,55.1s-14.5,20.8-29.8,53.8c22,10.2,37.8,19.6,37.8,19.6,0,0-19-3.7-44.6-4.1-27,65-49.7,165.1,10,252.3l-1,2.7c-12.4,34-33.7,61.5-33.9,61.8-1.82,2.43-1.33,5.88,1.09,7.7.9.68,1.98,1.06,3.11,1.1,1.1,0,3.2-.7,4.3-2.1.9-1.2,22.6-29.1,35.6-64.8l2.4-6.6c24.38-15.32,45.95-34.7,63.8-57.3l-25.3-18c13.2.35,26.39-.86,39.3-3.6,64.8-118.9-62.7-242.5-62.7-242.5h-.1Z"/>
</svg>