<?xml version="1.0" encoding="UTF-8"?>
<svg id="Layer_1" xmlns="http://www.w3.org/2000/svg" version="1.1" viewBox="0 0 464 500">
  <!-- Generator: Adobe Illustrator 29.8.1, SVG Export Plug-In . SVG Version: 2.1.1 Build 2)  -->
  <defs>
    <style>
      .st0 {
        fill: #c37b31;
      }
    </style>
  </defs>
  <path class="st0" d="M324.2,202.3c.1-60.6-43.7-116-120.3-147.6-7.52,9.22-14.41,18.94-20.6,29.1,18.7,8.6,26,10.6,46.4,29.4-29.3-6-37.8-2.8-58.4-7.6-42.1,86.7-35.3,191.9,5.8,269l-2.3,3.6c-21.9,33-36.1,38.9-36.1,38.9-2.81.99-4.29,4.07-3.31,6.88,0,0,0,.01,0,.02.8,2.2,2.9,3.6,5.1,3.6s1.2-.1,1.8-.3c1.7-.6,17.6-7.1,41.5-43.2l4.6-7.2c33.43-17.66,63.71-40.74,89.6-68.3-7.08-11-13.3-22.54-18.6-34.5,13.8,3.8,25.4,8.3,35.9,12.8,13.84-19.28,23.17-41.43,27.3-64.8-15-3-31.2-8.1-48.7-15.8,19.5-2.5,35.6-3.3,50.3-4.1v.1Z"/>
</svg>