<?xml version="1.0" encoding="UTF-8"?>
<svg id="Layer_1" xmlns="http://www.w3.org/2000/svg" version="1.1" viewBox="0 0 464 500">
  <!-- Generator: Adobe Illustrator 29.8.1, SVG Export Plug-In . SVG Version: 2.1.1 Build 2)  -->
  <defs>
    <style>
      .st0, .st1 {
        fill: #c8c12e;
      }

      .st1 {
        stroke: #c8c12e;
        stroke-miterlimit: 10;
        stroke-width: 10px;
      }
    </style>
  </defs>
  <path class="st1" d="M232,255.95"/>
  <path class="st1" d="M232,255.95"/>
  <path class="st0" d="M220.58,250.57c-8.59-9.27-26.7-26.91-61.17-53.62-5.47-4.25-10.94-8.24-16.24-11.86h0c-24.15-16.49-40.66-22.67-48.53-24.91-1.03,10.09,1.66,32.18,25.41,56.19,29.51,29.84,44.59,32.8,48.03,34.19h52.49Z"/>
  <path class="st0" d="M243.46,250.57c8.59-9.27,26.7-26.91,61.17-53.62,5.47-4.25,10.94-8.24,16.24-11.86h0c24.15-16.49,40.66-22.67,48.53-24.91,1.03,10.09-1.66,32.18-25.41,56.19-29.51,29.84-44.59,32.8-48.03,34.19h-52.49Z"/>
  <path class="st0" d="M257.38,152.74c.32-3.93,1.61-25.09-4.8-50.93-5.8-23.38-15.51-35.68-20.58-40.81-5.06,5.11-14.77,17.42-20.58,40.81-6.41,25.83-5.12,46.99-4.8,50.93,11.73,27.6,20.29,57.71,25.38,78.02,5.09-20.31,13.65-50.43,25.38-78.02Z"/>
  <path class="st0" d="M195.9,155.75c-13.37-31.24-28.09-52.4-35.1-61.57-5.2,6.74-13.54,20.41-14.55,39.77-1.02,19.6,4.06,38.99,5.61,44.35,4.86,3.37,9.82,7.01,14.79,10.87,27.48,21.29,44.78,36.93,55.32,47.4-4.9-20.02-13.71-51.92-26.07-80.81Z"/>
  <path class="st0" d="M297.35,189.15c5.17-4.01,10.1-7.6,14.78-10.85,1.54-5.37,6.63-24.8,5.61-44.35-1.01-19.49-9.33-33.1-14.53-39.79-7,9.16-21.74,30.33-35.12,61.6-12.36,28.88-21.16,60.77-26.07,80.79,10.54-10.47,27.84-26.1,55.32-47.4Z"/>
  <path class="st0" d="M330.82,348.02c6.95-41.08-6.97-76.98-11.52-87.25h-77.19,0s-76.04,0-76.04,0h-.03s-21.34,0-21.34,0c-4.54,10.28-18.46,46.27-11.53,87.25,4.91,29,17.75,53.18,38.18,71.86,13.01,11.89,25.13,17.64,28.53,19.12h64.21c3.39-1.47,15.51-7.22,28.53-19.12,20.43-18.68,33.28-42.85,38.18-71.86Z"/>
</svg>